<svg width="440" height="203" viewBox="0 0 440 203" fill="none" xmlns="http://www.w3.org/2000/svg">
<path d="M308.644 69.106C290.987 51.449 262.254 51.449 244.597 69.106L220.757 92.9456L196.918 69.106C183.777 55.9654 183.777 34.5779 196.918 21.4373C210.058 8.29671 231.446 8.29671 244.587 21.4373C246.85 23.7008 250.518 23.7008 252.781 21.4373C255.045 19.1738 255.045 15.5062 252.781 13.2428C235.124 -4.41425 206.391 -4.41425 188.734 13.2428C176.756 25.2202 172.911 42.3009 177.186 57.5582C161.929 53.2828 144.858 57.1286 132.871 69.106C115.214 86.763 115.214 115.496 132.871 133.153C141.704 141.977 153.294 146.399 164.894 146.399C176.494 146.399 188.084 141.987 196.918 133.153L220.757 109.314L244.597 133.153C257.738 146.294 257.738 167.681 244.597 180.822C231.456 193.963 210.069 193.963 196.928 180.822C194.665 178.559 190.997 178.559 188.734 180.822C186.47 183.085 186.47 186.753 188.734 189.017C197.568 197.84 209.157 202.262 220.757 202.262C232.358 202.262 243.947 197.85 252.781 189.017C264.759 177.039 268.604 159.958 264.329 144.701C268.342 145.822 272.482 146.399 276.621 146.399C288.221 146.399 299.821 141.987 308.644 133.153C326.301 115.496 326.301 86.763 308.644 69.106ZM188.744 124.969C175.604 138.11 154.216 138.11 141.076 124.969C127.935 111.829 127.935 90.4411 141.076 77.3005C147.646 70.7303 156.281 67.4399 164.915 67.4399C173.55 67.4399 182.174 70.7303 188.744 77.3005L212.573 101.14L188.744 124.98V124.969ZM300.46 124.969C287.32 138.11 265.932 138.11 252.792 124.969L228.962 101.13L252.792 77.2901C265.932 64.1495 287.32 64.1495 300.46 77.2901C313.601 90.4307 313.601 111.818 300.46 124.959V124.969Z" fill="#E7E2DE"/>
<path d="M79.96 69.371C89.5726 69.371 96.8668 72.0255 101.841 77.3349C106.87 82.6441 109.386 90.0491 109.386 99.5497C109.386 109.051 106.871 116.456 101.841 121.766C96.8668 127.075 89.5726 129.729 79.96 129.729C70.3475 129.729 63.0259 127.075 57.9961 121.766C53.0222 116.456 50.5352 109.051 50.5352 99.5497C50.5352 90.0491 53.0224 82.6441 57.9961 77.3349C63.0259 72.0256 70.3475 69.3711 79.96 69.371ZM365.258 69.371C368.89 69.371 372.076 69.8739 374.814 70.8798C377.609 71.8298 379.956 72.9751 381.856 74.3163C381.912 74.3163 382.025 74.3725 382.192 74.4843C382.36 74.596 382.5 74.6523 382.611 74.6523C383.114 74.6522 383.366 74.2608 383.366 73.4784V69.7899H386.887V86.3046H383.952C383.449 82.1132 381.633 78.9276 378.504 76.748C375.43 74.5124 371.713 73.3944 367.354 73.3944C360.815 73.3945 355.729 75.742 352.097 80.4364C348.52 85.1309 346.731 91.502 346.731 99.5497C346.731 107.765 348.38 114.192 351.678 118.831C354.975 123.47 359.865 125.789 366.348 125.789C370.26 125.789 373.865 124.895 377.162 123.106C380.515 121.262 382.891 118.384 384.288 114.472H388.061C387.055 119.11 384.483 122.828 380.348 125.622C376.212 128.36 371.07 129.729 364.923 129.729C355.757 129.729 348.743 127.075 343.881 121.766C339.019 116.456 336.588 109.051 336.588 99.5497C336.588 93.3463 337.706 87.9809 339.941 83.454C342.177 78.9275 345.418 75.4626 349.665 73.0595C353.968 70.6005 359.166 69.371 365.258 69.371ZM131.991 72.8075H130.398C129.337 72.8075 128.414 73.0313 127.632 73.4784C126.849 73.9255 126.458 74.5126 126.458 75.2392C126.458 75.5183 126.486 75.7415 126.542 75.9091L141.464 118.664L156.554 76.245C156.665 75.9097 156.722 75.6578 156.722 75.4901C156.722 74.6519 156.246 74.0095 155.296 73.5624C154.402 73.0594 153.479 72.8075 152.529 72.8075H151.021V70.2089H169.967V72.8075H168.625C167.451 72.8076 166.278 73.0876 165.104 73.6464C163.987 74.2052 163.26 74.9592 162.925 75.9091L143.225 129.142H135.68L115.56 75.7421C115.224 74.8479 114.554 74.1494 113.548 73.6464C112.598 73.0876 111.62 72.8076 110.614 72.8075H109.021V70.2089H131.991V72.8075ZM24.6465 72.8075H22.1318C18.9464 72.8075 17.3537 73.8415 17.3535 75.9091V121.43C17.3535 123.833 19.0298 125.035 22.3828 125.035H37.8916C40.2389 125.035 42.0273 123.665 43.2568 120.927C44.5422 118.188 45.3531 115.45 45.6885 112.712H48.4551L46.9463 128.891H0V126.292H2.43164C4.05213 126.292 5.25376 126.069 6.03613 125.622C6.87444 125.119 7.29394 124.336 7.29395 123.274V75.9091C7.29375 73.8416 5.67269 72.8076 2.43164 72.8075H0V70.2089H24.6465V72.8075ZM218.763 85.2148H216.164C215.605 77.7817 213.006 74.0653 208.367 74.0653H189.422V96.1972H203.338C205.014 96.1971 206.104 95.5538 206.607 94.2685C207.166 92.9272 207.557 90.9148 207.78 88.2323H210.044V108.017H207.78C207.557 105.335 207.166 103.351 206.607 102.065C206.104 100.724 205.014 100.053 203.338 100.053H189.422V125.035H209.876C214.123 125.035 216.695 121.178 217.589 113.466H220.188L218.679 128.891H172.068V126.292H174.499C176.12 126.292 177.322 126.069 178.104 125.622C178.943 125.119 179.361 124.336 179.361 123.274V75.9091C179.361 73.8415 177.74 72.8075 174.499 72.8075H172.068V70.2089H218.763V85.2148ZM249.698 72.8075H247.184C243.998 72.8075 242.405 73.8415 242.405 75.9091V121.43C242.405 123.833 244.082 125.035 247.435 125.035H262.943C265.291 125.035 267.079 123.665 268.309 120.927C269.594 118.188 270.405 115.45 270.74 112.712H273.507L271.997 128.891H225.052V126.292H227.483C229.104 126.292 230.306 126.069 231.088 125.622C231.926 125.119 232.345 124.336 232.345 123.274V75.9091C232.345 73.8416 230.724 72.8076 227.483 72.8075H225.052V70.2089H249.698V72.8075ZM331.19 123.358C331.582 124.308 332.252 125.035 333.202 125.538C334.152 126.041 335.159 126.292 336.221 126.292H337.813V128.891H314.844V126.292H316.353C317.694 126.292 318.643 126.096 319.202 125.705C319.817 125.314 320.125 124.728 320.125 123.945C320.125 123.219 319.845 122.073 319.286 120.508L316.101 111.873H293.047L289.19 122.184C289.023 122.687 288.939 123.107 288.939 123.442C288.94 124.336 289.331 125.035 290.113 125.538C290.896 126.041 291.845 126.292 292.963 126.292H294.556V128.891H275.61V126.292H276.867C278.041 126.292 279.187 126.013 280.305 125.454C281.478 124.895 282.233 124.169 282.568 123.274L302.521 71.6337L309.981 68.7841L331.19 123.358ZM438.575 85.2148H435.976C435.417 77.7817 432.818 74.0654 428.18 74.0653H409.233V96.1972H423.149C424.826 96.1972 425.916 95.5539 426.419 94.2685C426.978 92.9272 427.369 90.9149 427.593 88.2323H429.856V108.017H427.593C427.369 105.334 426.978 103.351 426.419 102.065C425.916 100.724 424.826 100.053 423.149 100.053H409.233V125.035H429.688C433.936 125.035 436.507 121.178 437.401 113.466H440L438.491 128.891H391.881V126.292H394.312C395.932 126.292 397.134 126.069 397.916 125.622C398.754 125.119 399.174 124.336 399.174 123.274V75.9091C399.174 73.8415 397.553 72.8075 394.312 72.8075H391.881V70.2089H438.575V85.2148ZM79.877 73.3105C73.6175 73.3105 68.8384 75.6579 65.541 80.3524C62.2996 84.9911 60.6787 91.3903 60.6787 99.5497C60.6787 107.709 62.2997 114.108 65.541 118.747C68.8384 123.386 73.6175 125.705 79.877 125.705C86.1921 125.705 90.9986 123.386 94.2959 118.747C97.5931 114.108 99.2412 107.709 99.2412 99.5497C99.2412 91.3903 97.5932 84.9911 94.2959 80.3524C90.9986 75.658 86.1921 73.3106 79.877 73.3105ZM294.473 108.017H314.676L304.7 80.6874L294.473 108.017Z" fill="#422E1C"/>
</svg>
